<svg width="22" height="22" viewBox="0 0 22 22" fill="none" xmlns="http://www.w3.org/2000/svg">
<path d="M21.5 10.9341C21.5 11.1661 21.4078 11.3887 21.2437 11.5528C21.0796 11.7169 20.8571 11.8091 20.625 11.8091H11.875V20.5591C11.875 20.7911 11.7828 21.0137 11.6187 21.1778C11.4546 21.3419 11.2321 21.4341 11 21.4341C10.7679 21.4341 10.5454 21.3419 10.3813 21.1778C10.2172 21.0137 10.125 20.7911 10.125 20.5591V11.8091H1.375C1.14294 11.8091 0.920376 11.7169 0.756282 11.5528C0.592187 11.3887 0.5 11.1661 0.5 10.9341C0.5 10.702 0.592187 10.4795 0.756282 10.3154C0.920376 10.1513 1.14294 10.0591 1.375 10.0591H10.125V1.30908C10.125 1.07702 10.2172 0.854458 10.3813 0.690364C10.5454 0.526269 10.7679 0.434082 11 0.434082C11.2321 0.434082 11.4546 0.526269 11.6187 0.690364C11.7828 0.854458 11.875 1.07702 11.875 1.30908V10.0591H20.625C20.8571 10.0591 21.0796 10.1513 21.2437 10.3154C21.4078 10.4795 21.5 10.702 21.5 10.9341Z" fill="white"/>
</svg>