<svg width="26" height="23" viewBox="0 0 26 23" fill="none" xmlns="http://www.w3.org/2000/svg">
<path d="M24.9012 18.506L15.3363 1.89523C15.0973 1.48827 14.7561 1.15084 14.3465 0.916388C13.9369 0.681934 13.4731 0.558594 13.0012 0.558594C12.5292 0.558594 12.0655 0.681934 11.6559 0.916388C11.2463 1.15084 10.905 1.48827 10.666 1.89523L1.10117 18.506C0.871197 18.8996 0.75 19.3473 0.75 19.8032C0.75 20.2591 0.871197 20.7068 1.10117 21.1004C1.33713 21.5098 1.67777 21.8491 2.08813 22.0834C2.4985 22.3177 2.96381 22.4386 3.43633 22.4337H22.566C23.0382 22.4382 23.503 22.3171 23.913 22.0828C24.3229 21.8485 24.6632 21.5095 24.899 21.1004C25.1293 20.707 25.2509 20.2594 25.2513 19.8035C25.2516 19.3476 25.1308 18.8998 24.9012 18.506ZM23.3841 20.2243C23.3008 20.3665 23.181 20.484 23.0373 20.5648C22.8935 20.6455 22.7309 20.6865 22.566 20.6837H3.43633C3.27148 20.6865 3.10883 20.6455 2.96507 20.5648C2.8213 20.484 2.70159 20.3665 2.6182 20.2243C2.54267 20.0964 2.50283 19.9506 2.50283 19.8021C2.50283 19.6536 2.54267 19.5078 2.6182 19.3799L12.183 2.76913C12.2681 2.62757 12.3884 2.51043 12.5321 2.42911C12.6759 2.34779 12.8382 2.30505 13.0034 2.30505C13.1685 2.30505 13.3309 2.34779 13.4746 2.42911C13.6184 2.51043 13.7386 2.62757 13.8237 2.76913L23.3885 19.3799C23.4634 19.5082 23.5025 19.6542 23.5017 19.8027C23.5009 19.9512 23.4603 20.0968 23.3841 20.2243ZM12.1262 13.6837V9.30867C12.1262 9.0766 12.2184 8.85404 12.3825 8.68995C12.5465 8.52585 12.7691 8.43367 13.0012 8.43367C13.2332 8.43367 13.4558 8.52585 13.6199 8.68995C13.784 8.85404 13.8762 9.0766 13.8762 9.30867V13.6837C13.8762 13.9157 13.784 14.1383 13.6199 14.3024C13.4558 14.4665 13.2332 14.5587 13.0012 14.5587C12.7691 14.5587 12.5465 14.4665 12.3825 14.3024C12.2184 14.1383 12.1262 13.9157 12.1262 13.6837ZM14.3137 17.6212C14.3137 17.8808 14.2367 18.1345 14.0925 18.3504C13.9483 18.5662 13.7433 18.7344 13.5034 18.8338C13.2636 18.9331 12.9997 18.9591 12.7451 18.9084C12.4905 18.8578 12.2567 18.7328 12.0731 18.5492C11.8895 18.3657 11.7645 18.1318 11.7139 17.8772C11.6632 17.6226 11.6892 17.3587 11.7886 17.1189C11.8879 16.8791 12.0561 16.6741 12.272 16.5299C12.4878 16.3856 12.7416 16.3087 13.0012 16.3087C13.3493 16.3087 13.6831 16.4469 13.9293 16.6931C14.1754 16.9392 14.3137 17.2731 14.3137 17.6212Z" fill="#B2550B"/>
</svg>
