<svg width="16" height="20" viewBox="0 0 16 20" fill="none" xmlns="http://www.w3.org/2000/svg">
<path d="M15.5449 12.2959L8.79492 19.0459C8.6904 19.1508 8.56621 19.234 8.42947 19.2908C8.29272 19.3476 8.14611 19.3768 7.99804 19.3768C7.84998 19.3768 7.70337 19.3476 7.56662 19.2908C7.42988 19.234 7.30569 19.1508 7.20117 19.0459L0.45117 12.2959C0.239826 12.0846 0.121094 11.7979 0.121094 11.4991C0.121094 11.2002 0.239826 10.9135 0.45117 10.7022C0.662515 10.4908 0.949159 10.3721 1.24805 10.3721C1.54693 10.3721 1.83358 10.4908 2.04492 10.7022L6.87398 15.5312V1.75C6.87398 1.45163 6.99251 1.16548 7.20349 0.954505C7.41447 0.743526 7.70061 0.625 7.99898 0.625C8.29735 0.625 8.5835 0.743526 8.79448 0.954505C9.00546 1.16548 9.12398 1.45163 9.12398 1.75V15.5312L13.953 10.7013C14.1644 10.4899 14.451 10.3712 14.7499 10.3712C15.0488 10.3712 15.3354 10.4899 15.5468 10.7013C15.7581 10.9126 15.8769 11.1992 15.8769 11.4981C15.8769 11.797 15.7581 12.0837 15.5468 12.295L15.5449 12.2959Z" fill="#EB4F49"/>
</svg>
