<svg width="16" height="20" viewBox="0 0 16 20" fill="none" xmlns="http://www.w3.org/2000/svg">
<path d="M15.5449 9.29964C15.4404 9.40452 15.3162 9.48773 15.1795 9.54452C15.0427 9.6013 14.8961 9.63053 14.748 9.63053C14.6 9.63053 14.4534 9.6013 14.3166 9.54452C14.1799 9.48773 14.0557 9.40452 13.9512 9.29964L9.12398 4.47245V18.2537C9.12398 18.5521 9.00546 18.8382 8.79448 19.0492C8.5835 19.2602 8.29735 19.3787 7.99898 19.3787C7.70061 19.3787 7.41447 19.2602 7.20349 19.0492C6.99251 18.8382 6.87398 18.5521 6.87398 18.2537V4.47245L2.04492 9.29964C1.83358 9.51098 1.54693 9.62971 1.24805 9.62971C0.949159 9.62971 0.662515 9.51098 0.45117 9.29964C0.239826 9.08829 0.121094 8.80165 0.121094 8.50276C0.121094 8.20388 0.239826 7.91723 0.45117 7.70589L7.20117 0.955887C7.30569 0.851007 7.42988 0.767791 7.56662 0.71101C7.70337 0.654229 7.84998 0.625 7.99804 0.625C8.14611 0.625 8.29272 0.654229 8.42947 0.71101C8.56621 0.767791 8.6904 0.851007 8.79492 0.955887L15.5449 7.70589C15.6498 7.8104 15.733 7.9346 15.7898 8.07134C15.8466 8.20809 15.8758 8.3547 15.8758 8.50276C15.8758 8.65083 15.8466 8.79744 15.7898 8.93418C15.733 9.07093 15.6498 9.19512 15.5449 9.29964Z" fill="#4B9D5C"/>
</svg>
