<svg width="36" height="36" viewBox="0 0 36 36" fill="none" xmlns="http://www.w3.org/2000/svg">
<rect width="36" height="36" rx="8" fill="#F3EEE3" style="fill:#F3EEE3;fill:color(display-p3 0.9529 0.9333 0.8902);fill-opacity:1;"/>
<path d="M9.21938 18.5307L15.9694 25.2807C16.1101 25.4214 16.301 25.5005 16.5 25.5005C16.699 25.5005 16.8899 25.4214 17.0306 25.2807C17.1714 25.1399 17.2504 24.9491 17.2504 24.7501C17.2504 24.551 17.1714 24.3602 17.0306 24.2194L11.5603 18.7501H26.25C26.4489 18.7501 26.6397 18.671 26.7803 18.5304C26.921 18.3897 27 18.199 27 18.0001C27 17.8011 26.921 17.6104 26.7803 17.4697C26.6397 17.3291 26.4489 17.2501 26.25 17.2501H11.5603L17.0306 11.7807C17.1714 11.6399 17.2504 11.4491 17.2504 11.2501C17.2504 11.051 17.1714 10.8602 17.0306 10.7194C16.8899 10.5787 16.699 10.4996 16.5 10.4996C16.301 10.4996 16.1101 10.5787 15.9694 10.7194L9.21938 17.4694C9.14964 17.5391 9.09432 17.6218 9.05658 17.7128C9.01884 17.8039 8.99941 17.9015 8.99941 18.0001C8.99941 18.0986 9.01884 18.1962 9.05658 18.2873C9.09432 18.3783 9.14964 18.461 9.21938 18.5307Z" fill="#AF8C45" style="fill:#AF8C45;fill:color(display-p3 0.6863 0.5490 0.2706);fill-opacity:1;"/>
</svg>