<svg width="10" height="18" viewBox="0 0 10 18" fill="none" xmlns="http://www.w3.org/2000/svg">
<path d="M9.53024 15.9034C9.59992 15.9731 9.6552 16.0558 9.69291 16.1468C9.73062 16.2379 9.75003 16.3355 9.75003 16.434C9.75003 16.5326 9.73062 16.6301 9.69291 16.7212C9.6552 16.8122 9.59992 16.895 9.53024 16.9646C9.46056 17.0343 9.37783 17.0896 9.28679 17.1273C9.19574 17.165 9.09816 17.1844 8.99961 17.1844C8.90107 17.1844 8.80349 17.165 8.71244 17.1273C8.6214 17.0896 8.53867 17.0343 8.46899 16.9646L0.968988 9.46464C0.899256 9.39498 0.843937 9.31226 0.806194 9.22122C0.768451 9.13017 0.749023 9.03257 0.749023 8.93401C0.749023 8.83545 0.768451 8.73785 0.806194 8.64681C0.843937 8.55576 0.899256 8.47304 0.968988 8.40339L8.46899 0.903386C8.60972 0.762655 8.80059 0.683594 8.99961 0.683594C9.19864 0.683594 9.38951 0.762655 9.53024 0.903386C9.67097 1.04412 9.75003 1.23499 9.75003 1.43401C9.75003 1.63303 9.67097 1.82391 9.53024 1.96464L2.55993 8.93401L9.53024 15.9034Z" fill="white"/>
</svg>