<svg width="28" height="29" viewBox="0 0 28 29" fill="none" xmlns="http://www.w3.org/2000/svg">
<path d="M14.875 9.68363V14.4382L18.8256 16.8083C19.0246 16.9278 19.168 17.1215 19.2242 17.3467C19.2804 17.5719 19.2448 17.8103 19.1253 18.0093C19.0058 18.2082 18.8121 18.3516 18.5869 18.4078C18.3617 18.464 18.1234 18.4285 17.9244 18.3089L13.5494 15.6839C13.4199 15.6061 13.3127 15.4962 13.2384 15.3647C13.164 15.2332 13.125 15.0847 13.125 14.9336V9.68363C13.125 9.45156 13.2172 9.229 13.3813 9.06491C13.5454 8.90081 13.7679 8.80863 14 8.80863C14.2321 8.80863 14.4546 8.90081 14.6187 9.06491C14.7828 9.229 14.875 9.45156 14.875 9.68363ZM14 4.43363C12.6197 4.43019 11.2524 4.70054 9.97725 5.22903C8.70211 5.75752 7.54444 6.53366 6.57125 7.51253C5.77609 8.31753 5.06953 9.09191 4.375 9.90238V7.93363C4.375 7.70156 4.28281 7.479 4.11872 7.31491C3.95462 7.15081 3.73206 7.05863 3.5 7.05863C3.26794 7.05863 3.04538 7.15081 2.88128 7.31491C2.71719 7.479 2.625 7.70156 2.625 7.93363V12.3086C2.625 12.5407 2.71719 12.7633 2.88128 12.9273C3.04538 13.0914 3.26794 13.1836 3.5 13.1836H7.875C8.10706 13.1836 8.32962 13.0914 8.49372 12.9273C8.65781 12.7633 8.75 12.5407 8.75 12.3086C8.75 12.0766 8.65781 11.854 8.49372 11.6899C8.32962 11.5258 8.10706 11.4336 7.875 11.4336H5.35938C6.14141 10.5127 6.92016 9.64535 7.80828 8.74628C9.02437 7.5302 10.5719 6.69945 12.2574 6.35784C13.9429 6.01622 15.6918 6.1789 17.2854 6.82553C18.879 7.47217 20.2467 8.57409 21.2176 9.9936C22.1886 11.4131 22.7197 13.0873 22.7445 14.8069C22.7694 16.5265 22.287 18.2154 21.3575 19.6624C20.4281 21.1094 19.0928 22.2504 17.5185 22.9429C15.9443 23.6353 14.2009 23.8485 12.5062 23.5558C10.8115 23.2631 9.2406 22.4775 7.98984 21.2971C7.90625 21.2181 7.80791 21.1563 7.70045 21.1153C7.59299 21.0743 7.4785 21.0549 7.36353 21.0581C7.24856 21.0614 7.13536 21.0873 7.03038 21.1343C6.92541 21.1813 6.83072 21.2485 6.75172 21.3321C6.67272 21.4157 6.61096 21.514 6.56997 21.6215C6.52897 21.7289 6.50954 21.8434 6.51279 21.9584C6.51604 22.0733 6.54191 22.1865 6.58891 22.2915C6.63591 22.3965 6.70312 22.4912 6.78672 22.5702C8.03299 23.7463 9.54817 24.5995 11.2 25.0553C12.8518 25.5111 14.5901 25.5558 16.2632 25.1853C17.9363 24.8148 19.4932 24.0405 20.7982 22.93C22.1032 21.8194 23.1165 20.4063 23.7498 18.814C24.3831 17.2218 24.6171 15.4987 24.4313 13.7952C24.2455 12.0918 23.6456 10.4596 22.684 9.0413C21.7224 7.62297 20.4283 6.46155 18.9146 5.65839C17.4008 4.85523 15.7136 4.43474 14 4.43363Z" fill="#232528"/>
</svg>
