<svg width="17" height="16" viewBox="0 0 17 16" fill="none" xmlns="http://www.w3.org/2000/svg">
    <path
        d="M9.90898 7.99915L16.2044 1.71303C16.3926 1.52485 16.4983 1.26961 16.4983 1.00347C16.4983 0.737334 16.3926 0.482097 16.2044 0.29391C16.0162 0.105723 15.761 0 15.4949 0C15.2288 0 14.9736 0.105723 14.7854 0.29391L8.5 6.59002L2.21456 0.29391C2.02639 0.105723 1.77118 2.36288e-07 1.50507 2.38271e-07C1.23896 2.40254e-07 0.983751 0.105723 0.795584 0.29391C0.607417 0.482097 0.501706 0.737334 0.501706 1.00347C0.501706 1.26961 0.607417 1.52485 0.795584 1.71303L7.09102 7.99915L0.795584 14.2853C0.701924 14.3782 0.627583 14.4887 0.576851 14.6105C0.52612 14.7323 0.5 14.8629 0.5 14.9948C0.5 15.1268 0.52612 15.2574 0.576851 15.3792C0.627583 15.5009 0.701924 15.6115 0.795584 15.7044C0.88848 15.7981 0.999001 15.8724 1.12077 15.9231C1.24254 15.9739 1.37315 16 1.50507 16C1.63699 16 1.7676 15.9739 1.88937 15.9231C2.01114 15.8724 2.12166 15.7981 2.21456 15.7044L8.5 9.40828L14.7854 15.7044C14.8783 15.7981 14.9889 15.8724 15.1106 15.9231C15.2324 15.9739 15.363 16 15.4949 16C15.6268 16 15.7575 15.9739 15.8792 15.9231C16.001 15.8724 16.1115 15.7981 16.2044 15.7044C16.2981 15.6115 16.3724 15.5009 16.4232 15.3792C16.4739 15.2574 16.5 15.1268 16.5 14.9948C16.5 14.8629 16.4739 14.7323 16.4232 14.6105C16.3724 14.4887 16.2981 14.3782 16.2044 14.2853L9.90898 7.99915Z"
        fill="#AF8C45"
    />
</svg>