<svg width="25" height="25" viewBox="0 0 25 25" fill="none" xmlns="http://www.w3.org/2000/svg">
<path d="M3.35352 11.9468L10.3848 4.91558C10.5314 4.76899 10.7302 4.68663 10.9375 4.68663C11.1448 4.68663 11.3436 4.76899 11.4902 4.91558C11.6368 5.06217 11.7192 5.261 11.7192 5.46832C11.7192 5.67563 11.6368 5.87446 11.4902 6.02105L5.79199 11.7183L21.0938 11.7183C21.301 11.7183 21.4997 11.8006 21.6462 11.9471C21.7927 12.0937 21.875 12.2924 21.875 12.4996C21.875 12.7068 21.7927 12.9055 21.6462 13.052C21.4997 13.1985 21.301 13.2808 21.0938 13.2808L5.79199 13.2808L11.4902 18.9781C11.6368 19.1247 11.7192 19.3235 11.7192 19.5308C11.7192 19.7381 11.6368 19.937 11.4902 20.0835C11.3436 20.2301 11.1448 20.3125 10.9375 20.3125C10.7302 20.3125 10.5314 20.2301 10.3848 20.0835L3.35352 13.0523C3.28088 12.9797 3.22325 12.8936 3.18394 12.7987C3.14462 12.7039 3.12439 12.6022 3.12439 12.4996C3.12439 12.3969 3.14462 12.2952 3.18394 12.2004C3.22325 12.1056 3.28088 12.0194 3.35352 11.9468Z" fill="#5d3b26"/>
</svg>
