<svg width="24" height="25" viewBox="0 0 24 25" fill="none" xmlns="http://www.w3.org/2000/svg">
    <path
        d="M23.5 12.5C23.5 18.8513 18.3513 24 12 24C5.64873 24 0.5 18.8513 0.5 12.5C0.5 6.14873 5.64873 1 12 1C18.3513 1 23.5 6.14873 23.5 12.5Z"
        fill="#F8F3EB" stroke="#B68A36" />
    <path
        d="M16.3728 7.87054H14.2299V7.44196C14.2299 7.10097 14.0945 6.77395 13.8533 6.53283C13.6122 6.29171 13.2852 6.15625 12.9442 6.15625H10.3728C10.0318 6.15625 9.70475 6.29171 9.46363 6.53283C9.22251 6.77395 9.08705 7.10097 9.08705 7.44196V7.87054H6.9442C6.83053 7.87054 6.72152 7.91569 6.64115 7.99606C6.56078 8.07643 6.51562 8.18544 6.51562 8.29911C6.51562 8.41277 6.56078 8.52178 6.64115 8.60215C6.72152 8.68253 6.83053 8.72768 6.9442 8.72768H7.37277V16.442C7.37277 16.6693 7.46307 16.8873 7.62382 17.0481C7.78456 17.2088 8.00258 17.2991 8.22991 17.2991H15.0871C15.3144 17.2991 15.5324 17.2088 15.6931 17.0481C15.8539 16.8873 15.9442 16.6693 15.9442 16.442V8.72768H16.3728C16.4864 8.72768 16.5954 8.68253 16.6758 8.60215C16.7562 8.52178 16.8013 8.41277 16.8013 8.29911C16.8013 8.18544 16.7562 8.07643 16.6758 7.99606C16.5954 7.91569 16.4864 7.87054 16.3728 7.87054ZM9.9442 7.44196C9.9442 7.3283 9.98935 7.21929 10.0697 7.13892C10.1501 7.05855 10.2591 7.01339 10.3728 7.01339H12.9442C13.0579 7.01339 13.1669 7.05855 13.2472 7.13892C13.3276 7.21929 13.3728 7.3283 13.3728 7.44196V7.87054H9.9442V7.44196ZM15.0871 16.442H8.22991V8.72768H15.0871V16.442ZM10.8013 10.8705V14.2991C10.8013 14.4128 10.7562 14.5218 10.6758 14.6022C10.5954 14.6825 10.4864 14.7277 10.3728 14.7277C10.2591 14.7277 10.1501 14.6825 10.0697 14.6022C9.98935 14.5218 9.9442 14.4128 9.9442 14.2991V10.8705C9.9442 10.7569 9.98935 10.6479 10.0697 10.5675C10.1501 10.4871 10.2591 10.442 10.3728 10.442C10.4864 10.442 10.5954 10.4871 10.6758 10.5675C10.7562 10.6479 10.8013 10.7569 10.8013 10.8705ZM13.3728 10.8705V14.2991C13.3728 14.4128 13.3276 14.5218 13.2472 14.6022C13.1669 14.6825 13.0579 14.7277 12.9442 14.7277C12.8305 14.7277 12.7215 14.6825 12.6412 14.6022C12.5608 14.5218 12.5156 14.4128 12.5156 14.2991V10.8705C12.5156 10.7569 12.5608 10.6479 12.6412 10.5675C12.7215 10.4871 12.8305 10.442 12.9442 10.442C13.0579 10.442 13.1669 10.4871 13.2472 10.5675C13.3276 10.6479 13.3728 10.7569 13.3728 10.8705Z"
        fill="#B68A36" />
</svg>