<svg width="26" height="27" viewBox="0 0 26 27" fill="none" xmlns="http://www.w3.org/2000/svg">
<circle cx="13" cy="13.5" r="13" fill="#AF4545" fill-opacity="0.05"/>
<path d="M11.5 8.5L13.5 8.5C13.5 7.94772 13.0523 7.5 12.5 7.5C11.9477 7.5 11.5 7.94772 11.5 8.5ZM10.5 8.5C10.5 7.39543 11.3954 6.5 12.5 6.5C13.6046 6.5 14.5 7.39543 14.5 8.5L18.5 8.5C18.7761 8.5 19 8.72386 19 9C19 9.27614 18.7761 9.5 18.5 9.5L17.9364 9.5L16.7313 18.3378C16.5624 19.5765 15.5044 20.5 14.2542 20.5L10.7458 20.5C9.49561 20.5 8.43762 19.5765 8.26871 18.3378L7.06355 9.5L6.5 9.5C6.22386 9.5 6 9.27614 6 9C6 8.72386 6.22386 8.5 6.5 8.5L10.5 8.5ZM11.5 12C11.5 11.7239 11.2761 11.5 11 11.5C10.7239 11.5 10.5 11.7239 10.5 12L10.5 17C10.5 17.2761 10.7239 17.5 11 17.5C11.2761 17.5 11.5 17.2761 11.5 17L11.5 12ZM14 11.5C14.2761 11.5 14.5 11.7239 14.5 12L14.5 17C14.5 17.2761 14.2761 17.5 14 17.5C13.7239 17.5 13.5 17.2761 13.5 17L13.5 12C13.5 11.7239 13.7239 11.5 14 11.5ZM9.25954 18.2027C9.36089 18.9459 9.99568 19.5 10.7458 19.5L14.2542 19.5C15.0043 19.5 15.6391 18.9459 15.7405 18.2027L16.9272 9.5L8.07281 9.5L9.25954 18.2027Z" fill="#AF4545" fill-opacity="0.4"/>
</svg>
