<svg width="18" height="19" viewBox="0 0 22 22" fill="none" xmlns="http://www.w3.org/2000/svg">
<path d="M21.5 13.1836V20.1836C21.5 20.4157 21.4078 20.6382 21.2437 20.8023C21.0796 20.9664 20.8571 21.0586 20.625 21.0586H1.375C1.14294 21.0586 0.920376 20.9664 0.756282 20.8023C0.592187 20.6382 0.5 20.4157 0.5 20.1836V13.1836C0.5 12.9515 0.592187 12.729 0.756282 12.5649C0.920376 12.4008 1.14294 12.3086 1.375 12.3086C1.60706 12.3086 1.82962 12.4008 1.99372 12.5649C2.15781 12.729 2.25 12.9515 2.25 13.1836V19.3086H19.75V13.1836C19.75 12.9515 19.8422 12.729 20.0063 12.5649C20.1704 12.4008 20.3929 12.3086 20.625 12.3086C20.8571 12.3086 21.0796 12.4008 21.2437 12.5649C21.4078 12.729 21.5 12.9515 21.5 13.1836ZM10.3809 13.8027C10.4622 13.884 10.5587 13.9486 10.6649 13.9926C10.7712 14.0366 10.885 14.0593 11 14.0593C11.115 14.0593 11.2288 14.0366 11.3351 13.9926C11.4413 13.9486 11.5378 13.884 11.6191 13.8027L15.9941 9.42766C16.0754 9.34636 16.1398 9.24985 16.1838 9.14363C16.2278 9.03741 16.2505 8.92356 16.2505 8.80859C16.2505 8.69362 16.2278 8.57978 16.1838 8.47356C16.1398 8.36734 16.0754 8.27083 15.9941 8.18953C15.9128 8.10823 15.8163 8.04375 15.71 7.99975C15.6038 7.95575 15.49 7.93311 15.375 7.93311C15.26 7.93311 15.1462 7.95575 15.04 7.99975C14.9337 8.04375 14.8372 8.10823 14.7559 8.18953L11.875 11.0716V0.933594C11.875 0.701529 11.7828 0.47897 11.6187 0.314875C11.4546 0.150781 11.2321 0.0585938 11 0.0585938C10.7679 0.0585938 10.5454 0.150781 10.3813 0.314875C10.2172 0.47897 10.125 0.701529 10.125 0.933594V11.0716L7.24406 8.18953C7.07988 8.02535 6.85719 7.93311 6.625 7.93311C6.39281 7.93311 6.17012 8.02535 6.00594 8.18953C5.84175 8.35372 5.74951 8.5764 5.74951 8.80859C5.74951 9.04079 5.84175 9.26347 6.00594 9.42766L10.3809 13.8027Z" fill="white"/>
</svg>