<svg width="24" height="25" viewBox="0 0 24 25" fill="none" xmlns="http://www.w3.org/2000/svg">
<path d="M23.5 12.5C23.5 18.8513 18.3513 24 12 24C5.64873 24 0.5 18.8513 0.5 12.5C0.5 6.14873 5.64873 1 12 1C18.3513 1 23.5 6.14873 23.5 12.5Z" fill="#F8F3EB" stroke="#B68A36"/>
<path d="M9.00472 7.23988C8.86141 7.07053 8.68414 6.93268 8.48421 6.83512C8.28428 6.73756 8.06607 6.68243 7.84349 6.67325C7.62092 6.66406 7.39886 6.70103 7.19146 6.78178C6.98407 6.86253 6.79589 6.9853 6.63893 7.14227C6.48196 7.29923 6.35965 7.48695 6.27979 7.69345C6.19993 7.89995 6.16427 8.12071 6.17509 8.34165C6.18591 8.5626 6.24296 8.77888 6.34261 8.97672C6.44227 9.17455 6.58234 9.3496 6.75389 9.49071L14.3504 17.0872L17.4453 17.9313L16.6013 14.8364L9.00472 7.23988Z" fill="white" stroke="#B68A36" stroke-linecap="round" stroke-linejoin="round"/>
<path d="M10.1328 8.36719L7.88199 10.618L10.1328 8.36719Z" fill="white"/>
<path d="M10.1328 8.36719L7.88199 10.618" stroke="#B68A36" stroke-linecap="round" stroke-linejoin="round"/>
</svg>
