<svg width="57" height="56" viewBox="0 0 57 56" fill="none" xmlns="http://www.w3.org/2000/svg">
<rect x="0.5" width="56" height="56" rx="28" fill="#FDE4E3" style="fill:#FDE4E3;fill:color(display-p3 0.9922 0.8941 0.8902);fill-opacity:1;"/>
<path d="M38.2081 36.2924C38.301 36.3854 38.3747 36.4957 38.4249 36.6171C38.4752 36.7384 38.5011 36.8686 38.5011 36.9999C38.5011 37.1313 38.4752 37.2614 38.4249 37.3828C38.3747 37.5042 38.301 37.6145 38.2081 37.7074C38.1151 37.8004 38.0048 37.8741 37.8835 37.9243C37.7621 37.9746 37.632 38.0005 37.5006 38.0005C37.3692 38.0005 37.2391 37.9746 37.1177 37.9243C36.9963 37.8741 36.886 37.8004 36.7931 37.7074L28.5006 29.4137L20.2081 37.7074C20.0204 37.8951 19.7659 38.0005 19.5006 38.0005C19.2352 38.0005 18.9807 37.8951 18.7931 37.7074C18.6054 37.5198 18.5 37.2653 18.5 36.9999C18.5 36.7346 18.6054 36.4801 18.7931 36.2924L27.0868 27.9999L18.7931 19.7074C18.6054 19.5198 18.5 19.2653 18.5 18.9999C18.5 18.7346 18.6054 18.4801 18.7931 18.2924C18.9807 18.1048 19.2352 17.9994 19.5006 17.9994C19.7659 17.9994 20.0204 18.1048 20.2081 18.2924L28.5006 26.5862L36.7931 18.2924C36.9807 18.1048 37.2352 17.9994 37.5006 17.9994C37.7659 17.9994 38.0204 18.1048 38.2081 18.2924C38.3957 18.4801 38.5011 18.7346 38.5011 18.9999C38.5011 19.2653 38.3957 19.5198 38.2081 19.7074L29.9143 27.9999L38.2081 36.2924Z" fill="#B52520" style="fill:#B52520;fill:color(display-p3 0.7098 0.1451 0.1255);fill-opacity:1;"/>
</svg>
