<svg width="28" height="29" viewBox="0 0 28 29" fill="none" xmlns="http://www.w3.org/2000/svg">
<path d="M23.3691 8.18953L18.9941 3.81453C18.9127 3.7333 18.8162 3.66889 18.71 3.62497C18.6038 3.58106 18.4899 3.5585 18.375 3.55859H9.625C9.16087 3.55859 8.71575 3.74297 8.38756 4.07116C8.05937 4.39935 7.875 4.84447 7.875 5.30859V7.05859H6.125C5.66087 7.05859 5.21575 7.24297 4.88756 7.57116C4.55937 7.89935 4.375 8.34447 4.375 8.80859V24.5586C4.375 25.0227 4.55937 25.4678 4.88756 25.796C5.21575 26.1242 5.66087 26.3086 6.125 26.3086H18.375C18.8391 26.3086 19.2842 26.1242 19.6124 25.796C19.9406 25.4678 20.125 25.0227 20.125 24.5586V22.8086H21.875C22.3391 22.8086 22.7842 22.6242 23.1124 22.296C23.4406 21.9678 23.625 21.5227 23.625 21.0586V8.80859C23.6251 8.69365 23.6025 8.57982 23.5586 8.4736C23.5147 8.36738 23.4503 8.27085 23.3691 8.18953ZM18.375 24.5586H6.125V8.80859H14.513L18.375 12.6706V21.9161C18.375 21.9227 18.375 21.9281 18.375 21.9336C18.375 21.9391 18.375 21.9445 18.375 21.9511V24.5586ZM21.875 21.0586H20.125V12.3086C20.1251 12.1937 20.1025 12.0798 20.0586 11.9736C20.0147 11.8674 19.9503 11.7709 19.8691 11.6895L15.4941 7.31453C15.4127 7.2333 15.3162 7.16889 15.21 7.12497C15.1038 7.08106 14.9899 7.0585 14.875 7.05859H9.625V5.30859H18.013L21.875 9.17063V21.0586ZM15.75 17.5586C15.75 17.7907 15.6578 18.0132 15.4937 18.1773C15.3296 18.3414 15.1071 18.4336 14.875 18.4336H9.625C9.39294 18.4336 9.17038 18.3414 9.00628 18.1773C8.84219 18.0132 8.75 17.7907 8.75 17.5586C8.75 17.3265 8.84219 17.104 9.00628 16.9399C9.17038 16.7758 9.39294 16.6836 9.625 16.6836H14.875C15.1071 16.6836 15.3296 16.7758 15.4937 16.9399C15.6578 17.104 15.75 17.3265 15.75 17.5586ZM15.75 21.0586C15.75 21.2907 15.6578 21.5132 15.4937 21.6773C15.3296 21.8414 15.1071 21.9336 14.875 21.9336H9.625C9.39294 21.9336 9.17038 21.8414 9.00628 21.6773C8.84219 21.5132 8.75 21.2907 8.75 21.0586C8.75 20.8265 8.84219 20.604 9.00628 20.4399C9.17038 20.2758 9.39294 20.1836 9.625 20.1836H14.875C15.1071 20.1836 15.3296 20.2758 15.4937 20.4399C15.6578 20.604 15.75 20.8265 15.75 21.0586Z" fill="#232528"/>
</svg>
