<svg width="24" height="24" viewBox="0 0 24 24" fill="none" xmlns="http://www.w3.org/2000/svg">
<path d="M12 0.558594C9.75024 0.558594 7.551 1.22573 5.68039 2.47563C3.80978 3.72553 2.35182 5.50206 1.49088 7.58057C0.629929 9.65908 0.404666 11.9462 0.843573 14.1527C1.28248 16.3593 2.36584 18.3861 3.95667 19.9769C5.54749 21.5678 7.57432 22.6511 9.78085 23.09C11.9874 23.5289 14.2745 23.3037 16.353 22.4427C18.4315 21.5818 20.2081 20.1238 21.458 18.2532C22.7079 16.3826 23.375 14.1834 23.375 11.9336C23.3718 8.91773 22.1724 6.02631 20.0398 3.89377C17.9073 1.76124 15.0159 0.561779 12 0.558594ZM12 21.5586C10.0964 21.5586 8.23546 20.9941 6.65264 19.9365C5.06982 18.8789 3.83616 17.3757 3.10766 15.6169C2.37917 13.8582 2.18856 11.9229 2.55995 10.0559C2.93133 8.18878 3.84802 6.47377 5.1941 5.12769C6.54018 3.78161 8.25519 2.86492 10.1223 2.49354C11.9893 2.12215 13.9246 2.31276 15.6833 3.04125C17.4421 3.76975 18.9453 5.00341 20.0029 6.58623C21.0605 8.16905 21.625 10.0299 21.625 11.9336C21.6221 14.4854 20.6071 16.9319 18.8027 18.7363C16.9983 20.5407 14.5518 21.5557 12 21.5586ZM13.75 17.1836C13.75 17.4157 13.6578 17.6382 13.4937 17.8023C13.3296 17.9664 13.1071 18.0586 12.875 18.0586C12.4109 18.0586 11.9658 17.8742 11.6376 17.546C11.3094 17.2178 11.125 16.7727 11.125 16.3086V11.9336C10.8929 11.9336 10.6704 11.8414 10.5063 11.6773C10.3422 11.5132 10.25 11.2907 10.25 11.0586C10.25 10.8265 10.3422 10.604 10.5063 10.4399C10.6704 10.2758 10.8929 10.1836 11.125 10.1836C11.5891 10.1836 12.0343 10.368 12.3624 10.6962C12.6906 11.0243 12.875 11.4695 12.875 11.9336V16.3086C13.1071 16.3086 13.3296 16.4008 13.4937 16.5649C13.6578 16.729 13.75 16.9515 13.75 17.1836ZM10.25 7.12109C10.25 6.86151 10.327 6.60775 10.4712 6.39191C10.6154 6.17607 10.8204 6.00784 11.0602 5.9085C11.3001 5.80916 11.564 5.78317 11.8186 5.83381C12.0732 5.88446 12.307 6.00946 12.4906 6.19302C12.6741 6.37657 12.7991 6.61044 12.8498 6.86504C12.9004 7.11964 12.8744 7.38354 12.7751 7.62337C12.6758 7.86319 12.5075 8.06818 12.2917 8.2124C12.0759 8.35662 11.8221 8.43359 11.5625 8.43359C11.2144 8.43359 10.8806 8.29531 10.6344 8.04917C10.3883 7.80303 10.25 7.46919 10.25 7.12109Z" fill="#5D3B26"/>
</svg>
