<svg width="24" height="24" viewBox="0 0 24 24" fill="none" xmlns="http://www.w3.org/2000/svg">
<rect width="24" height="24" rx="12" fill="#E9F0FF"/>
<path d="M14.3529 6.64706C14.3529 7.5567 13.7077 8.29412 12.9118 8.29412C12.1158 8.29412 11.4706 7.5567 11.4706 6.64706C11.4706 5.73741 12.1158 5 12.9118 5C13.7077 5 14.3529 5.73741 14.3529 6.64706Z" fill="#286CFF"/>
<path d="M12.9042 5C11.8787 5 11.0443 5.85223 11.0443 6.8997C11.0443 7.94717 11.8787 8.7994 12.9042 8.7994C13.9297 8.7994 14.7654 7.94717 14.7654 6.8997C14.764 5.85223 13.9297 5 12.9042 5ZM11.7685 6.8997C11.7685 6.25982 12.2777 5.74107 12.9028 5.74107C13.5292 5.74107 14.0385 6.26124 14.0385 6.8997C14.0385 7.53816 13.5292 8.05833 12.9028 8.05833C12.2777 8.05833 11.7685 7.53816 11.7685 6.8997Z" fill="#286CFF"/>
<path d="M12.4588 17.2392L11.8827 16.5294L11.4709 16.1176L11.4706 15.5412L12.9529 10.1059L12.4588 9.36535H11.4706L9.82383 11.1765L10.6471 11.5882L10.9765 12.0824L9.4941 18.0118V18.5059L10.6471 19L12.4588 17.2392Z" fill="#286CFF"/>
<path d="M11.8662 9.0426C11.1128 9.0426 10.3789 9.44591 9.79849 10.177C9.45945 10.6045 9.44271 10.9523 9.48735 11.1703C9.54456 11.4468 9.73152 11.6321 10.0133 11.6948C10.1459 11.7233 10.2617 11.8088 10.3301 11.9271C10.3998 12.0454 10.418 12.1893 10.3817 12.3218L9.066 17.0803C8.93206 17.5649 9.00321 18.0281 9.2683 18.3858C9.55711 18.7763 10.0454 19 10.6049 19C11.3723 19 12.1397 18.5896 12.7061 17.8727C13.0452 17.4452 13.0619 17.0974 13.0172 16.8794C12.96 16.6029 12.7731 16.4162 12.4913 16.355C12.3587 16.3265 12.2429 16.2409 12.1731 16.1227C12.1034 16.0044 12.0852 15.8604 12.1215 15.7265L13.4372 10.968C13.567 10.4991 13.4902 10.0416 13.2209 9.67821C12.9238 9.2749 12.4285 9.0426 11.8662 9.0426ZM10.6063 18.2589C10.2798 18.2589 9.99661 18.1392 9.84732 17.9383C9.72175 17.7687 9.69384 17.5421 9.765 17.2813L11.0807 12.5228C11.1714 12.1936 11.1253 11.8359 10.9523 11.5437C10.7877 11.263 10.517 11.0592 10.1947 10.9751C10.1989 10.9038 10.245 10.7884 10.3608 10.6416C10.9537 9.89341 11.5579 9.78225 11.8634 9.78225C12.1927 9.78225 12.4829 9.91051 12.6419 10.1257C12.7717 10.3024 12.8052 10.5233 12.7382 10.767L11.4225 15.5255C11.3318 15.8547 11.3779 16.211 11.5509 16.5046C11.7169 16.7853 11.9862 16.9891 12.3085 17.0732C12.3029 17.1445 12.2582 17.2599 12.1411 17.4067C11.7155 17.9483 11.1546 18.2589 10.6063 18.2589Z" fill="#286CFF"/>
</svg>
