<svg width="16" height="17" viewBox="0 0 16 17" fill="none" xmlns="http://www.w3.org/2000/svg">
<path d="M9.40898 8.49915L15.7044 2.21303C15.8926 2.02485 15.9983 1.76961 15.9983 1.50347C15.9983 1.23733 15.8926 0.982097 15.7044 0.79391C15.5162 0.605723 15.261 0.5 14.9949 0.5C14.7288 0.5 14.4736 0.605723 14.2854 0.79391L8 7.09002L1.71456 0.79391C1.52639 0.605723 1.27118 0.5 1.00507 0.5C0.738961 0.5 0.483751 0.605723 0.295584 0.79391C0.107417 0.982097 0.0017056 1.23733 0.0017056 1.50347C0.0017056 1.76961 0.107417 2.02485 0.295584 2.21303L6.59102 8.49915L0.295584 14.7853C0.201924 14.8782 0.127583 14.9887 0.0768515 15.1105C0.0261196 15.2323 0 15.3629 0 15.4948C0 15.6268 0.0261196 15.7574 0.0768515 15.8792C0.127583 16.0009 0.201924 16.1115 0.295584 16.2044C0.38848 16.2981 0.499001 16.3724 0.620772 16.4231C0.742543 16.4739 0.873154 16.5 1.00507 16.5C1.13699 16.5 1.2676 16.4739 1.38937 16.4231C1.51114 16.3724 1.62166 16.2981 1.71456 16.2044L8 9.90828L14.2854 16.2044C14.3783 16.2981 14.4889 16.3724 14.6106 16.4231C14.7324 16.4739 14.863 16.5 14.9949 16.5C15.1268 16.5 15.2575 16.4739 15.3792 16.4231C15.501 16.3724 15.6115 16.2981 15.7044 16.2044C15.7981 16.1115 15.8724 16.0009 15.9232 15.8792C15.9739 15.7574 16 15.6268 16 15.4948C16 15.3629 15.9739 15.2323 15.9232 15.1105C15.8724 14.9887 15.7981 14.8782 15.7044 14.7853L9.40898 8.49915Z" fill="#003CFF"/>
</svg>
