<svg width="36" height="35" viewBox="0 0 36 35" fill="none" xmlns="http://www.w3.org/2000/svg">
<rect x="0.5" width="35" height="35" rx="17.5" fill="white"/>
<path d="M19.0567 16.9994L23.7783 12.2848C23.9194 12.1436 23.9987 11.9522 23.9987 11.7526C23.9987 11.553 23.9194 11.3616 23.7783 11.2204C23.6372 11.0793 23.4458 11 23.2462 11C23.0466 11 22.8552 11.0793 22.7141 11.2204L18 15.9425L13.2859 11.2204C13.1448 11.0793 12.9534 11 12.7538 11C12.5542 11 12.3628 11.0793 12.2217 11.2204C12.0806 11.3616 12.0013 11.553 12.0013 11.7526C12.0013 11.9522 12.0806 12.1436 12.2217 12.2848L16.9433 16.9994L12.2217 21.7139C12.1514 21.7836 12.0957 21.8665 12.0576 21.9579C12.0196 22.0492 12 22.1472 12 22.2461C12 22.3451 12.0196 22.443 12.0576 22.5344C12.0957 22.6257 12.1514 22.7086 12.2217 22.7783C12.2914 22.8485 12.3743 22.9043 12.4656 22.9424C12.5569 22.9804 12.6549 23 12.7538 23C12.8527 23 12.9507 22.9804 13.042 22.9424C13.1334 22.9043 13.2162 22.8485 13.2859 22.7783L18 18.0562L22.7141 22.7783C22.7838 22.8485 22.8666 22.9043 22.958 22.9424C23.0493 22.9804 23.1473 23 23.2462 23C23.3451 23 23.4431 22.9804 23.5344 22.9424C23.6257 22.9043 23.7086 22.8485 23.7783 22.7783C23.8486 22.7086 23.9043 22.6257 23.9424 22.5344C23.9804 22.443 24 22.3451 24 22.2461C24 22.1472 23.9804 22.0492 23.9424 21.9579C23.9043 21.8665 23.8486 21.7836 23.7783 21.7139L19.0567 16.9994Z" fill="#920000"/>
</svg>
