<svg width="18" height="16" viewBox="0 0 18 16" fill="none" xmlns="http://www.w3.org/2000/svg">
<path d="M0.219376 8.53104L6.96937 15.281C7.11011 15.4218 7.30098 15.5008 7.5 15.5008C7.69902 15.5008 7.88989 15.4218 8.03063 15.281C8.17136 15.1403 8.25042 14.9494 8.25042 14.7504C8.25042 14.5514 8.17136 14.3605 8.03063 14.2198L2.56031 8.75042H17.25C17.4489 8.75042 17.6397 8.6714 17.7803 8.53075C17.921 8.3901 18 8.19933 18 8.00042C18 7.8015 17.921 7.61074 17.7803 7.47009C17.6397 7.32943 17.4489 7.25042 17.25 7.25042H2.56031L8.03063 1.78104C8.17136 1.64031 8.25042 1.44944 8.25042 1.25042C8.25042 1.05139 8.17136 0.860523 8.03063 0.719792C7.88989 0.579062 7.69902 0.5 7.5 0.5C7.30098 0.5 7.11011 0.579062 6.96937 0.719792L0.219376 7.46979C0.149643 7.53945 0.0943222 7.62216 0.0565796 7.71321C0.018837 7.80426 -0.000589371 7.90186 -0.000589371 8.00042C-0.000589371 8.09898 0.018837 8.19657 0.0565796 8.28762C0.0943222 8.37867 0.149643 8.46139 0.219376 8.53104Z" fill="white"/>
</svg>
