<svg width="19" height="25" viewBox="0 0 19 25" fill="none" xmlns="http://www.w3.org/2000/svg">
<g opacity="0.3">
<path opacity="0.3" d="M13.3277 5.85863C12.8138 5.8581 12.3211 5.64069 11.9577 5.25412C11.5943 4.86755 11.39 4.3434 11.3895 3.79671V0.933838H2.72866C2.05781 0.933838 1.41444 1.21735 0.940077 1.72199C0.465714 2.22663 0.199219 2.91105 0.199219 3.62472V19.846C0.200215 20.559 0.467148 21.2424 0.941402 21.7462C1.41566 22.25 2.05846 22.5329 2.72866 22.5329H13.1256C13.7958 22.5329 14.4386 22.25 14.9129 21.7462C15.3871 21.2424 15.654 20.559 15.655 19.846V5.85863H13.3277Z" fill="#D83731"/>
</g>
<path d="M15.6542 5.85863H13.3269C12.813 5.8581 12.3203 5.64069 11.9569 5.25412C11.5935 4.86755 11.3892 4.3434 11.3887 3.79671V0.933838L15.6542 5.85863Z" fill="#D83731"/>
<path d="M12.4746 16.0173H2.77046C2.67697 16.0173 2.58731 15.9778 2.52121 15.9074C2.4551 15.8371 2.41797 15.7417 2.41797 15.6423C2.41822 15.543 2.45546 15.4479 2.52154 15.3778C2.58762 15.3077 2.67713 15.2683 2.77046 15.2683H12.4746C12.5679 15.2683 12.6573 15.3077 12.7232 15.3778C12.7891 15.448 12.8262 15.5431 12.8262 15.6423C12.8263 15.6915 12.8173 15.7402 12.7997 15.7857C12.7821 15.8312 12.7562 15.8725 12.7235 15.9074C12.6909 15.9422 12.6521 15.9699 12.6094 15.9887C12.5667 16.0076 12.5209 16.0173 12.4746 16.0173Z" fill="#D83731"/>
<path d="M12.4746 11.7934H2.77046C2.67713 11.7934 2.58762 11.754 2.52154 11.6839C2.45546 11.6138 2.41822 11.5187 2.41797 11.4194C2.41797 11.32 2.4551 11.2246 2.52121 11.1542C2.58731 11.0839 2.67697 11.0444 2.77046 11.0444H12.4746C12.5209 11.0444 12.5667 11.0541 12.6094 11.073C12.6521 11.0919 12.6909 11.1195 12.7235 11.1543C12.7562 11.1892 12.7821 11.2305 12.7997 11.276C12.8173 11.3215 12.8263 11.3702 12.8262 11.4194C12.8262 11.5186 12.7891 11.6137 12.7232 11.6839C12.6573 11.754 12.5679 11.7934 12.4746 11.7934Z" fill="#D83731"/>
<path d="M12.4746 13.9053H2.77046C2.67697 13.9053 2.58731 13.8658 2.52121 13.7955C2.4551 13.7252 2.41797 13.6298 2.41797 13.5304C2.41822 13.4311 2.45546 13.3359 2.52154 13.2658C2.58762 13.1957 2.67713 13.1564 2.77046 13.1564H12.4746C12.5679 13.1564 12.6573 13.1958 12.7232 13.2659C12.7891 13.336 12.8262 13.4312 12.8262 13.5304C12.8263 13.5796 12.8173 13.6283 12.7997 13.6738C12.7821 13.7193 12.7562 13.7606 12.7235 13.7955C12.6909 13.8303 12.6521 13.8579 12.6094 13.8768C12.5667 13.8956 12.5209 13.9053 12.4746 13.9053Z" fill="#D83731"/>
<path d="M8.64711 9.68146H2.77046C2.67713 9.68146 2.58762 9.6421 2.52154 9.57199C2.45546 9.50189 2.41822 9.40676 2.41797 9.30748C2.41797 9.20803 2.4551 9.11265 2.52121 9.04233C2.58731 8.97201 2.67697 8.9325 2.77046 8.9325H8.64711C8.74043 8.93276 8.82985 8.97238 8.89575 9.04267C8.96165 9.11297 8.99865 9.2082 8.99865 9.30748C8.9984 9.40659 8.96129 9.50155 8.89541 9.57163C8.82954 9.64171 8.74027 9.6812 8.64711 9.68146Z" fill="#D83731"/>
<path d="M8.64711 7.56965H2.77046C2.67713 7.56965 2.58762 7.53026 2.52154 7.46015C2.45546 7.39005 2.41822 7.29494 2.41797 7.19566C2.41797 7.09621 2.4551 7.00081 2.52121 6.93049C2.58731 6.86017 2.67697 6.82068 2.77046 6.82068H8.64711C8.74043 6.82094 8.82985 6.86056 8.89575 6.93085C8.96165 7.00115 8.99865 7.09638 8.99865 7.19566C8.9984 7.29477 8.96129 7.38973 8.89541 7.45981C8.82954 7.52989 8.74027 7.56938 8.64711 7.56965Z" fill="#D83731"/>
<path d="M17.4894 17.9941H5.73614C4.90242 17.9941 4.22656 18.7131 4.22656 19.6001V23.3279C4.22656 24.2149 4.90242 24.9339 5.73614 24.9339H17.4894C18.3232 24.9339 18.999 24.2149 18.999 23.3279V19.6001C18.999 18.7131 18.3232 17.9941 17.4894 17.9941Z" fill="#D83731"/>
<path d="M8.08185 22.2709V22.9978H7.375V22.2709H8.08185Z" fill="white"/>
<path d="M9.12086 21.9429V22.9978H8.4375V19.991H9.54478C9.88035 19.991 10.137 20.08 10.3127 20.2569C10.4017 20.3499 10.4711 20.4619 10.5165 20.5854C10.5618 20.709 10.5821 20.8414 10.5759 20.9739C10.5793 21.1487 10.5388 21.3213 10.4584 21.4739C10.3764 21.623 10.2547 21.7431 10.1088 21.8189C9.9327 21.9074 9.73942 21.9503 9.54478 21.9439L9.12086 21.9429ZM9.88035 20.9739C9.88035 20.7073 9.74311 20.5739 9.46864 20.5739H9.12086V21.3569H9.46864C9.74311 21.3596 9.88035 21.2319 9.88035 20.9739Z" fill="white"/>
<path d="M13.2761 22.2729C13.1584 22.5003 12.9806 22.686 12.7648 22.8069C12.5219 22.9392 12.2518 23.0048 11.979 22.9979H10.9121V19.991H11.979C12.252 19.9837 12.5225 20.0479 12.7667 20.178C12.9819 20.2964 13.1593 20.4802 13.2761 20.706C13.3984 20.9458 13.46 21.2152 13.4547 21.488C13.4598 21.7616 13.3983 22.032 13.2761 22.2729ZM12.5411 22.1219C12.6175 22.0385 12.6767 21.939 12.7149 21.8299C12.7531 21.7207 12.7694 21.6043 12.7629 21.488C12.7695 21.3718 12.7531 21.2555 12.7149 21.1465C12.6767 21.0375 12.6175 20.9382 12.5411 20.855C12.3701 20.6954 12.1468 20.6142 11.9198 20.629H11.5955V22.3469H11.9198C12.1466 22.3616 12.3697 22.2808 12.5411 22.1219Z" fill="white"/>
<path d="M15.6851 19.991V20.5699H14.5261V21.2289H15.4209V21.7819H14.5261V22.9978H13.8418V19.991H15.6851Z" fill="white"/>
<path d="M12.3035 6.82068H10.6417C10.352 6.82068 10.1172 7.07049 10.1172 7.37866V9.14658C10.1172 9.45474 10.352 9.70456 10.6417 9.70456H12.3035C12.5932 9.70456 12.828 9.45474 12.828 9.14658V7.37866C12.828 7.07049 12.5932 6.82068 12.3035 6.82068Z" fill="#D83731"/>
</svg>
