<svg width="24" height="25" viewBox="0 0 24 25" fill="none" xmlns="http://www.w3.org/2000/svg">
<path d="M21 12.9336C21 13.1325 20.921 13.3233 20.7803 13.4639C20.6397 13.6046 20.4489 13.6836 20.25 13.6836H12.75V21.1836C12.75 21.3825 12.671 21.5733 12.5303 21.7139C12.3897 21.8546 12.1989 21.9336 12 21.9336C11.8011 21.9336 11.6103 21.8546 11.4697 21.7139C11.329 21.5733 11.25 21.3825 11.25 21.1836V13.6836H3.75C3.55109 13.6836 3.36032 13.6046 3.21967 13.4639C3.07902 13.3233 3 13.1325 3 12.9336C3 12.7347 3.07902 12.5439 3.21967 12.4033C3.36032 12.2626 3.55109 12.1836 3.75 12.1836H11.25V4.68359C11.25 4.48468 11.329 4.29392 11.4697 4.15326C11.6103 4.01261 11.8011 3.93359 12 3.93359C12.1989 3.93359 12.3897 4.01261 12.5303 4.15326C12.671 4.29392 12.75 4.48468 12.75 4.68359V12.1836H20.25C20.4489 12.1836 20.6397 12.2626 20.7803 12.4033C20.921 12.5439 21 12.7347 21 12.9336Z" fill="#7C5E24"/>
</svg>
