<svg width="24" height="24" viewBox="0 0 24 24" fill="none" xmlns="http://www.w3.org/2000/svg">
<path d="M23.5 12C23.5 18.3513 18.3513 23.5 12 23.5C5.64873 23.5 0.5 18.3513 0.5 12C0.5 5.64873 5.64873 0.5 12 0.5C18.3513 0.5 23.5 5.64873 23.5 12Z" fill="#F8F3EB" stroke="#B68A36" style="fill:#F8F3EB;fill:color(display-p3 0.9725 0.9529 0.9216);fill-opacity:1;stroke:#B68A36;stroke:color(display-p3 0.7137 0.5412 0.2118);stroke-opacity:1;"/>
<path d="M16.2993 9.34208H15.5134V7.62779C15.5134 7.51413 15.4682 7.40512 15.3879 7.32474C15.3075 7.24437 15.1985 7.19922 15.0848 7.19922H8.22768C8.11401 7.19922 8.00501 7.24437 7.92463 7.32474C7.84426 7.40512 7.79911 7.51413 7.79911 7.62779V9.34208H7.01321C6.26482 9.34208 5.65625 9.91904 5.65625 10.6278V14.9135C5.65625 15.0272 5.7014 15.1362 5.78178 15.2166C5.86215 15.2969 5.97116 15.3421 6.08482 15.3421H7.79911V17.0564C7.79911 17.17 7.84426 17.279 7.92463 17.3594C8.00501 17.4398 8.11401 17.4849 8.22768 17.4849H15.0848C15.1985 17.4849 15.3075 17.4398 15.3879 17.3594C15.4682 17.279 15.5134 17.17 15.5134 17.0564V15.3421H17.2277C17.3413 15.3421 17.4504 15.2969 17.5307 15.2166C17.6111 15.1362 17.6563 15.0272 17.6563 14.9135V10.6278C17.6563 9.91904 17.0477 9.34208 16.2993 9.34208ZM8.65625 8.05636H14.6563V9.34208H8.65625V8.05636ZM14.6563 16.6278H8.65625V14.0564H14.6563V16.6278ZM16.7991 14.4849H15.5134V13.6278C15.5134 13.5141 15.4682 13.4051 15.3879 13.3247C15.3075 13.2444 15.1985 13.1992 15.0848 13.1992H8.22768C8.11401 13.1992 8.00501 13.2444 7.92463 13.3247C7.84426 13.4051 7.79911 13.5141 7.79911 13.6278V14.4849H6.51339V10.6278C6.51339 10.3915 6.73786 10.1992 7.01321 10.1992H16.2993C16.5746 10.1992 16.7991 10.3915 16.7991 10.6278V14.4849ZM15.5134 11.6992C15.5134 11.8264 15.4757 11.9507 15.4051 12.0564C15.3344 12.1621 15.234 12.2445 15.1165 12.2931C14.9991 12.3418 14.8698 12.3545 14.7451 12.3297C14.6204 12.3049 14.5059 12.2437 14.416 12.1538C14.3261 12.0639 14.2648 11.9493 14.24 11.8246C14.2152 11.6999 14.228 11.5707 14.2766 11.4532C14.3253 11.3357 14.4077 11.2353 14.5134 11.1647C14.6191 11.0941 14.7434 11.0564 14.8705 11.0564C15.041 11.0564 15.2045 11.1241 15.3251 11.2446C15.4457 11.3652 15.5134 11.5287 15.5134 11.6992Z" fill="#B68A36" style="fill:#B68A36;fill:color(display-p3 0.7137 0.5412 0.2118);fill-opacity:1;"/>
</svg>
