<svg width="20" height="20" viewBox="0 0 20 20" fill="none" xmlns="http://www.w3.org/2000/svg">
<path d="M0.469406 18.4686L5.16347 13.7755C3.80294 12.1421 3.12451 10.047 3.26931 7.92618C3.41411 5.80531 4.37099 3.82191 5.9409 2.38859C7.5108 0.955257 9.57287 0.18235 11.6981 0.23065C13.8234 0.27895 15.8482 1.14474 17.3514 2.64791C18.8545 4.15108 19.7203 6.1759 19.7686 8.30115C19.8169 10.4264 19.044 12.4885 17.6107 14.0584C16.1774 15.6283 14.194 16.5852 12.0731 16.73C9.95223 16.8748 7.85718 16.1963 6.22378 14.8358L1.53066 19.5299C1.46097 19.5995 1.37825 19.6548 1.2872 19.6925C1.19616 19.7302 1.09858 19.7497 1.00003 19.7497C0.901485 19.7497 0.803904 19.7302 0.712858 19.6925C0.621815 19.6548 0.539089 19.5995 0.469406 19.5299C0.399723 19.4602 0.344448 19.3775 0.306736 19.2864C0.269024 19.1954 0.249613 19.0978 0.249613 18.9992C0.249613 18.9007 0.269024 18.8031 0.306736 18.7121C0.344448 18.621 0.399723 18.5383 0.469406 18.4686ZM18.25 8.49924C18.25 7.16421 17.8541 5.85917 17.1125 4.74914C16.3708 3.63911 15.3165 2.77394 14.0831 2.26305C12.8497 1.75216 11.4925 1.61849 10.1832 1.87894C8.8738 2.13939 7.67106 2.78226 6.72706 3.72627C5.78306 4.67027 5.14018 5.87301 4.87973 7.18238C4.61928 8.49175 4.75295 9.84895 5.26384 11.0823C5.77473 12.3158 6.6399 13.37 7.74993 14.1117C8.85996 14.8534 10.165 15.2492 11.5 15.2492C13.2896 15.2473 15.0054 14.5355 16.2708 13.27C17.5362 12.0046 18.248 10.2888 18.25 8.49924Z" fill="#B5B8BC"/>
</svg>
