<svg width="17" height="12" viewBox="0 0 17 12" fill="none" xmlns="http://www.w3.org/2000/svg">
<path d="M16.8265 5.77219C16.8019 5.71664 16.2063 4.39547 14.8823 3.07148C13.1182 1.30734 10.89 0.375 8.43749 0.375C5.98499 0.375 3.75679 1.30734 1.99265 3.07148C0.668665 4.39547 0.0703058 5.71875 0.0485089 5.77219C0.016526 5.84413 0 5.92198 0 6.0007C0 6.07943 0.016526 6.15728 0.0485089 6.22922C0.0731183 6.28477 0.668665 7.60523 1.99265 8.92922C3.75679 10.6927 5.98499 11.625 8.43749 11.625C10.89 11.625 13.1182 10.6927 14.8823 8.92922C16.2063 7.60523 16.8019 6.28477 16.8265 6.22922C16.8585 6.15728 16.875 6.07943 16.875 6.0007C16.875 5.92198 16.8585 5.84413 16.8265 5.77219ZM8.43749 8.8125C7.88123 8.8125 7.33747 8.64755 6.87495 8.33851C6.41244 8.02947 6.05195 7.59021 5.83908 7.0763C5.62621 6.56238 5.57051 5.99688 5.67904 5.45131C5.78756 4.90574 6.05542 4.4046 6.44876 4.01126C6.84209 3.61793 7.34323 3.35006 7.8888 3.24154C8.43437 3.13302 8.99987 3.18872 9.51379 3.40159C10.0277 3.61446 10.467 3.97495 10.776 4.43746C11.085 4.89997 11.25 5.44374 11.25 6C11.25 6.74592 10.9537 7.46129 10.4262 7.98874C9.89879 8.51618 9.18342 8.8125 8.43749 8.8125Z" fill="#B68A36"/>
</svg>
