<svg width="56" height="56" viewBox="0 0 56 56" fill="none" xmlns="http://www.w3.org/2000/svg">
<rect width="56" height="56" rx="28" fill="#E4F4E7" style="fill:#E4F4E7;fill:color(display-p3 0.8941 0.9569 0.9059);fill-opacity:1;"/>
<path d="M40.7081 21.7076L24.7081 37.7076C24.6152 37.8005 24.5049 37.8743 24.3835 37.9246C24.2621 37.975 24.132 38.0009 24.0006 38.0009C23.8691 38.0009 23.739 37.975 23.6176 37.9246C23.4962 37.8743 23.3859 37.8005 23.2931 37.7076L16.2931 30.7076C16.1054 30.5199 16 30.2654 16 30.0001C16 29.7347 16.1054 29.4802 16.2931 29.2926C16.4807 29.1049 16.7352 28.9995 17.0006 28.9995C17.2659 28.9995 17.5204 29.1049 17.7081 29.2926L24.0006 35.5863L39.2931 20.2926C39.4807 20.1049 39.7352 19.9995 40.0006 19.9995C40.2659 19.9995 40.5204 20.1049 40.7081 20.2926C40.8957 20.4802 41.0011 20.7347 41.0011 21.0001C41.0011 21.2654 40.8957 21.5199 40.7081 21.7076Z" fill="#3F8E50" style="fill:#3F8E50;fill:color(display-p3 0.2471 0.5569 0.3137);fill-opacity:1;"/>
</svg>
