<svg width="28" height="29" viewBox="0 0 28 29" fill="none" xmlns="http://www.w3.org/2000/svg">
<path d="M27.5 14.5715C27.5 22.0274 21.4558 28.0715 14 28.0715C6.54416 28.0715 0.5 22.0274 0.5 14.5715C0.5 7.11569 6.54416 1.07153 14 1.07153C21.4558 1.07153 27.5 7.11569 27.5 14.5715Z" fill="#F9F7ED" stroke="#7C5E24" style="fill:#F9F7ED;fill:color(display-p3 0.9765 0.9686 0.9294);fill-opacity:1;stroke:#7C5E24;stroke:color(display-p3 0.4863 0.3686 0.1412);stroke-opacity:1;"/>
<path d="M14.25 12.509C13.7926 12.509 13.3455 12.6447 12.9652 12.8988C12.585 13.1529 12.2886 13.514 12.1135 13.9366C11.9385 14.3591 11.8927 14.8241 11.9819 15.2727C12.0712 15.7213 12.2914 16.1333 12.6148 16.4567C12.9382 16.7801 13.3503 17.0004 13.7989 17.0896C14.2474 17.1788 14.7124 17.133 15.135 16.958C15.5575 16.783 15.9187 16.4866 16.1728 16.1063C16.4269 15.726 16.5625 15.2789 16.5625 14.8215C16.5625 14.2082 16.3189 13.62 15.8852 13.1863C15.4515 12.7527 14.8633 12.509 14.25 12.509ZM14.25 15.9778C14.0213 15.9778 13.7978 15.91 13.6076 15.7829C13.4175 15.6559 13.2693 15.4753 13.1818 15.264C13.0943 15.0527 13.0714 14.8203 13.116 14.596C13.1606 14.3717 13.2707 14.1656 13.4324 14.0039C13.5941 13.8422 13.8001 13.7321 14.0244 13.6875C14.2487 13.6429 14.4812 13.6658 14.6925 13.7533C14.9038 13.8408 15.0843 13.989 15.2114 14.1792C15.3384 14.3693 15.4062 14.5928 15.4062 14.8215C15.4062 15.1282 15.2844 15.4223 15.0676 15.6391C14.8508 15.856 14.5567 15.9778 14.25 15.9778ZM8.46875 12.509C8.01138 12.509 7.56428 12.6447 7.18399 12.8988C6.80371 13.1529 6.50731 13.514 6.33228 13.9366C6.15725 14.3591 6.11146 14.8241 6.20069 15.2727C6.28991 15.7213 6.51016 16.1333 6.83357 16.4567C7.15698 16.7801 7.56902 17.0004 8.0176 17.0896C8.46619 17.1788 8.93115 17.133 9.35371 16.958C9.77626 16.783 10.1374 16.4866 10.3915 16.1063C10.6456 15.726 10.7813 15.2789 10.7813 14.8215C10.7813 14.2082 10.5376 13.62 10.1039 13.1863C9.67026 12.7527 9.08206 12.509 8.46875 12.509ZM8.46875 15.9778C8.24007 15.9778 8.01652 15.91 7.82637 15.7829C7.63623 15.6559 7.48803 15.4753 7.40052 15.264C7.313 15.0527 7.2901 14.8203 7.33472 14.596C7.37933 14.3717 7.48945 14.1656 7.65116 14.0039C7.81286 13.8422 8.01889 13.7321 8.24318 13.6875C8.46747 13.6429 8.69995 13.6658 8.91123 13.7533C9.12251 13.8408 9.30309 13.989 9.43014 14.1792C9.55719 14.3693 9.625 14.5928 9.625 14.8215C9.625 15.1282 9.50318 15.4223 9.28634 15.6391C9.0695 15.856 8.77541 15.9778 8.46875 15.9778ZM20.0312 12.509C19.5739 12.509 19.1268 12.6447 18.7465 12.8988C18.3662 13.1529 18.0698 13.514 17.8948 13.9366C17.7198 14.3591 17.674 14.8241 17.7632 15.2727C17.8524 15.7213 18.0727 16.1333 18.3961 16.4567C18.7195 16.7801 19.1315 17.0004 19.5801 17.0896C20.0287 17.1788 20.4937 17.133 20.9162 16.958C21.3388 16.783 21.6999 16.4866 21.954 16.1063C22.2081 15.726 22.3438 15.2789 22.3438 14.8215C22.3438 14.2082 22.1001 13.62 21.6664 13.1863C21.2328 12.7527 20.6446 12.509 20.0312 12.509ZM20.0312 15.9778C19.8026 15.9778 19.579 15.91 19.3889 15.7829C19.1987 15.6559 19.0505 15.4753 18.963 15.264C18.8755 15.0527 18.8526 14.8203 18.8972 14.596C18.9418 14.3717 19.052 14.1656 19.2137 14.0039C19.3754 13.8422 19.5814 13.7321 19.8057 13.6875C20.03 13.6429 20.2625 13.6658 20.4737 13.7533C20.685 13.8408 20.8656 13.989 20.9926 14.1792C21.1197 14.3693 21.1875 14.5928 21.1875 14.8215C21.1875 15.1282 21.0657 15.4223 20.8488 15.6391C20.632 15.856 20.3379 15.9778 20.0312 15.9778Z" fill="#7C5E24" style="fill:#7C5E24;fill:color(display-p3 0.4863 0.3686 0.1412);fill-opacity:1;"/>
</svg>
