<svg width="20" height="20" viewBox="0 0 20 20" fill="none" xmlns="http://www.w3.org/2000/svg">
<rect width="20" height="20" rx="10" fill="#FCE9D8" style="fill:#FCE9D8;fill:color(display-p3 0.9882 0.9137 0.8471);fill-opacity:1;"/>
<path d="M12.2059 6.29412C12.2059 7.00884 11.6989 7.58823 11.0735 7.58823C10.4481 7.58823 9.94118 7.00884 9.94118 6.29412C9.94118 5.5794 10.4481 5 11.0735 5C11.6989 5 12.2059 5.5794 12.2059 6.29412Z" fill="#EB5F24" style="fill:#EB5F24;fill:color(display-p3 0.9216 0.3725 0.1412);fill-opacity:1;"/>
<path d="M11.0676 5C10.2618 5 9.60627 5.66961 9.60627 6.49262C9.60627 7.31564 10.2618 7.98524 11.0676 7.98524C11.8733 7.98524 12.5299 7.31564 12.5299 6.49262C12.5288 5.66961 11.8733 5 11.0676 5ZM10.1752 6.49262C10.1752 5.98986 10.5753 5.58227 11.0665 5.58227C11.5587 5.58227 11.9588 5.99098 11.9588 6.49262C11.9588 6.99427 11.5587 7.40298 11.0665 7.40298C10.5753 7.40298 10.1752 6.99427 10.1752 6.49262Z" fill="#EB5F24" style="fill:#EB5F24;fill:color(display-p3 0.9216 0.3725 0.1412);fill-opacity:1;"/>
<path d="M10.7176 14.6166L10.2649 14.0588L9.94141 13.7353L9.94116 13.2824L11.1059 9.01176L10.7176 8.42992H9.94116L8.6473 9.85294L9.29412 10.1765L9.55293 10.5647L8.38822 15.2235V15.6118L9.29412 16L10.7176 14.6166Z" fill="#EB5F24" style="fill:#EB5F24;fill:color(display-p3 0.9216 0.3725 0.1412);fill-opacity:1;"/>
<path d="M10.252 8.17633C9.66004 8.17633 9.08342 8.49322 8.62738 9.06765C8.36099 9.40357 8.34784 9.67679 8.38292 9.84811C8.42787 10.0653 8.57476 10.2109 8.7962 10.2602C8.90035 10.2826 8.99133 10.3498 9.04505 10.4427C9.09986 10.5356 9.11411 10.6487 9.08561 10.7529L8.05186 14.4917C7.94662 14.8724 8.00252 15.2363 8.21081 15.5174C8.43773 15.8242 8.82142 16 9.26101 16C9.86394 16 10.4669 15.6775 10.9119 15.1143C11.1783 14.7784 11.1915 14.5051 11.1564 14.3338C11.1115 14.1166 10.9646 13.9699 10.7431 13.9218C10.639 13.8994 10.548 13.8322 10.4932 13.7392C10.4384 13.6463 10.4241 13.5332 10.4526 13.4279L11.4864 9.68911C11.5883 9.32071 11.528 8.96127 11.3165 8.67574C11.083 8.35885 10.6938 8.17633 10.252 8.17633ZM9.2621 15.4177C9.00558 15.4177 8.78305 15.3237 8.66575 15.1658C8.56709 15.0325 8.54516 14.8545 8.60107 14.6496L9.63483 10.9108C9.70608 10.6521 9.66991 10.371 9.53397 10.1415C9.40462 9.9209 9.19195 9.76077 8.93871 9.69471C8.942 9.63872 8.97818 9.54802 9.06917 9.43269C9.53507 8.84482 10.0097 8.75748 10.2498 8.75748C10.5085 8.75748 10.7365 8.85826 10.8615 9.02734C10.9635 9.16619 10.9898 9.33975 10.9372 9.53122L9.90341 13.2701C9.83215 13.5287 9.86833 13.8087 10.0043 14.0393C10.1347 14.2599 10.3463 14.42 10.5995 14.4861C10.5951 14.5421 10.5601 14.6328 10.468 14.7481C10.1336 15.1736 9.69293 15.4177 9.2621 15.4177Z" fill="#EB5F24" style="fill:#EB5F24;fill:color(display-p3 0.9216 0.3725 0.1412);fill-opacity:1;"/>
</svg>
