<svg width="36" height="35" viewBox="0 0 36 35" fill="none" xmlns="http://www.w3.org/2000/svg">
<rect x="0.5" width="35" height="35" rx="17.5" fill="white"/>
<path d="M26.0757 11.7048V23.3024C26.0757 23.7418 25.921 24.1632 25.6456 24.474C25.3702 24.7847 24.9967 24.9592 24.6072 24.9592H23.3887H23.1387V25.2092V26.616C23.1387 27.0554 22.9839 27.4769 22.7085 27.7876C22.4331 28.0983 22.0596 28.2728 21.6701 28.2728H11.3904C11.0009 28.2728 10.6274 28.0983 10.352 27.7876C10.0766 27.4769 9.92188 27.0554 9.92188 26.616V11.7048C9.92188 11.2654 10.0766 10.844 10.352 10.5333C10.6274 10.2225 11.0009 10.048 11.3904 10.048L26.0757 11.7048ZM26.0757 11.7048C26.0758 11.596 26.0569 11.4882 26.02 11.3876M26.0757 11.7048L26.02 11.3876M21.6703 6.98438L21.6701 6.98438L14.3275 6.98438C14.0147 6.98438 13.7076 7.12429 13.4761 7.38547C13.2438 7.64762 13.1089 8.00899 13.1089 8.39118V10.048V10.298H12.8589H11.3904C11.0776 10.298 10.7706 10.4379 10.5391 10.6991C10.3067 10.9612 10.1719 11.3226 10.1719 11.7048V26.616C10.1719 26.9982 10.3067 27.3596 10.5391 27.6217C10.7706 27.8829 11.0776 28.0228 11.3904 28.0228H21.6701C21.9829 28.0228 22.29 27.8829 22.5214 27.6217C22.7538 27.3596 22.8887 26.9982 22.8887 26.616V24.9592V24.7092H23.1387H24.6072C24.92 24.7092 25.227 24.5693 25.4585 24.3081C25.6909 24.046 25.8257 23.6846 25.8257 23.3024V11.7048V11.7046C25.8258 11.6247 25.8119 11.5462 25.7853 11.4737C25.7587 11.4012 25.7204 11.3371 25.6738 11.2844L22.0026 7.14261L21.6703 6.98438ZM21.6703 6.98438C21.7295 6.98432 21.7889 6.99736 21.8456 7.02379C21.9023 7.05025 21.9559 7.09003 22.0025 7.14251L21.6703 6.98438ZM24.8572 23.5524H24.6072H23.1387H22.8887V23.3024V15.0184V15.0182C22.8887 14.9383 22.8748 14.8598 22.8482 14.7873L23.083 14.7012L22.8482 14.7873C22.8217 14.7148 22.7834 14.6508 22.7368 14.5981L24.8572 23.5524ZM24.8572 23.5524V23.3024V12.0475V11.9527L24.7943 11.8817L21.5534 8.22535L21.4788 8.14118H21.3663H14.3275H14.0775V8.39118V10.048V10.298H14.3275H18.7331H18.7333C18.7924 10.2979 18.8518 10.311 18.9085 10.3374C18.9653 10.3639 19.0189 10.4037 19.0656 10.4562L22.7367 14.598L24.8572 23.5524ZM26.02 11.3876C25.9832 11.2871 25.9291 11.1957 25.8609 11.1187L26.02 11.3876ZM21.6701 26.866H21.9201V26.616V24.1474V24.1474V24.1473V24.1473V24.1472V24.1472V24.1472V24.1471V24.1471V24.1471V24.147V24.147V24.147V24.1469V24.1469V24.1469V24.1468V24.1468V24.1467V24.1467V24.1467V24.1466V24.1466V24.1466V24.1465V24.1465V24.1465V24.1464V24.1464V24.1463V24.1463V24.1463V24.1462V24.1462V24.1462V24.1461V24.1461V24.1461V24.146V24.146V24.146V24.1459V24.1459V24.1458V24.1458V24.1458V24.1457V24.1457V24.1457V24.1456V24.1456V24.1456V24.1455V24.1455V24.1455V24.1454V24.1454V24.1454V24.1453V24.1453V24.1453V24.1452V24.1452V24.1451V24.1451V24.1451V24.145V24.145V24.145V24.1449V24.1449V24.1449V24.1448V24.1448V24.1448V24.1447V24.1447V24.1447V24.1446V24.1446V24.1446V24.1445V24.1445V24.1444V24.1444V24.1444V24.1443V24.1443V24.1443V24.1442V24.1442V24.1442V24.1441V24.1441V24.1441V24.144V24.144V24.144V24.1439V24.1439V24.1439V24.1438V24.1438V24.1438V24.1437V24.1437V24.1437V24.1436V24.1436V24.1436V24.1435V24.1435V24.1435V24.1434V24.1434V24.1434V24.1433V24.1433V24.1432V24.1432V24.1432V24.1431V24.1431V24.1431V24.143V24.143V24.143V24.1429V24.1429V24.1429V24.1428V24.1428V24.1428V24.1427V24.1427V24.1427V24.1426V24.1426V24.1426V24.1425V24.1425V24.1425V24.1424V24.1424V24.1424V24.1423V24.1423V24.1423V24.1422V24.1422V24.1422V24.1421V24.1421V24.1421V24.142V24.142V24.142V24.1419V24.1419V24.1419V24.1418V24.1418V24.1418V24.1417V24.1417V24.1417V24.1416V24.1416V24.1416V24.1415V24.1415V24.1415V24.1414V24.1414V24.1414V24.1413V24.1413V24.1413V24.1412V24.1412V24.1412V24.1411V24.1411V24.1411V24.141V24.141V24.141V24.1409V24.1409V24.1409V24.1409V24.1408V24.1408V24.1408V24.1407V24.1407V24.1407V24.1406V24.1406V24.1406V24.1405V24.1405V24.1405V24.1404V24.1404V24.1404V24.1403V24.1403V24.1403V24.1402V24.1402V24.1402V24.1401V24.1401V24.1401V24.14V24.14V24.14V24.1399V24.1399V24.1399V24.1398V24.1398V24.1398V24.1397V24.1397V24.1397V24.1397V24.1396V24.1396V24.1396V24.1395V24.1395V24.1395V24.1394V24.1394V24.1394V24.1393V24.1393V24.1393V24.1392V24.1392V24.1392V24.1391V24.1391V24.1391V24.139V24.139V24.139V24.1389V24.1389V24.1389V24.1388V24.1388V24.1388V24.1388V24.1387V24.1387V24.1387V24.1386V24.1386V24.1386V24.1385V24.1385V24.1385V24.1384V24.1384V24.1384V24.1383V24.1383V24.1383V24.1382V24.1382V24.1382V24.1381V24.1381V24.1381V24.1381V24.138V24.138V24.138V24.1379V24.1379V24.1379V24.1378V24.1378V24.1378V24.1377V24.1377V24.1377V24.1376V24.1376V24.1376V24.1376V24.1375V24.1375V24.1375V24.1374V24.1374V24.1374V24.1373V24.1373V24.1373V24.1372V24.1372V24.1372V24.1371V24.1371V24.1371V24.137V24.137V24.137V24.137V24.1369V24.1369V24.1369V24.1368V24.1368V24.1368V24.1367V24.1367V24.1367V24.1366V24.1366V24.1366V24.1365V24.1365V24.1365V24.1365V24.1364V24.1364V24.1364V24.1363V24.1363V24.1363V24.1362V24.1362V24.1362V24.1361V24.1361V24.1361V24.1361V24.136V24.136V24.136V24.1359V24.1359V24.1359V24.1358V24.1358V24.1358V24.1357V24.1357V24.1357V24.1356V24.1356V24.1356V24.1356V24.1355V24.1355V24.1355V24.1354V24.1354V24.1354V24.1353V24.1353V24.1353V24.1352V24.1352V24.1352V24.1352V24.1351V24.1351V24.1351V24.135V24.135V24.135V24.1349V24.1349V24.1349V24.1348V24.1348V24.1348V24.1348V24.1347V24.1347V24.1347V24.1346V24.1346V24.1346V24.1345V24.1345V24.1345V24.1344V24.1344V24.1344V24.1344V24.1343V24.1343V24.1343V24.1342V24.1342V24.1342V24.1341V24.1341V24.1341V24.1341V24.134V24.134V24.134V24.1339V24.1339V24.1339V24.1338V24.1338V24.1338V24.1337V24.1337V24.1337V24.1337V24.1336V24.1336V24.1336V24.1335V24.1335V24.1335V24.1334V24.1334V24.1334V24.1333V24.1333V24.1333V24.1333V24.1332V24.1332V24.1332V24.1331V24.1331V24.1331V24.133V24.133V24.133V24.133V24.1329V24.1329V24.1329V24.1328V24.1328V24.1328V24.1327V24.1327V24.1327V24.1326V24.1326V24.1326V24.1326V24.1325V24.1325V24.1325V24.1324V24.1324V24.1324V24.1323V24.1323V24.1323V24.1323V24.1322V24.1322V24.1322V24.1321V24.1321V24.1321V24.132V24.132V24.132V24.1319V24.1319V24.1319V24.1319V24.1318V24.1318V24.1318V24.1317V24.1317V24.1317V24.1316V24.1316V24.1316V24.1316V24.1315V24.1315V24.1315V24.1314V24.1314V24.1314V24.1313V24.1313V24.1313V24.1313V24.1312V24.1312V24.1312V24.1311V24.1311V24.1311V24.131V24.131V24.131V24.1309V24.1309V24.1309V24.1309V24.1308V24.1308V24.1308V24.1307V24.1307V24.1307V24.1306V24.1306V24.1306V24.1306V24.1305V24.1305V24.1305V24.1304V24.1304V24.1304V24.1303V24.1303V24.1303V24.1302V24.1302V24.1302V24.1302V24.1301V24.1301V24.1301V24.13V24.13V24.13V24.1299V24.1299V24.1299V24.1299V24.1298V24.1298V24.1298V24.1297V24.1297V24.1297V24.1296V24.1296V24.1296V24.1296V24.1295V24.1295V24.1295V24.1294V24.1294V24.1294V24.1293V24.1293V24.1293V24.1292V24.1292V24.1292V24.1292V24.1291V24.1291V24.1291V24.129V24.129V24.129V24.1289V24.1289V24.1289V24.1289V24.1288V24.1288V24.1288V24.1287V24.1287V24.1287V24.1286V24.1286V24.1286V24.1285V24.1285V24.1285V24.1285V24.1284V24.1284V24.1284V24.1283V24.1283V24.1283V24.1282V24.1282V24.1282V24.1282V24.1281V24.1281V24.1281V24.128V24.128V24.128V24.1279V24.1279V24.1279V24.1278V24.1278V24.1278V24.1278V24.1277V24.1277V24.1277V24.1276V24.1276V24.1276V24.1275V24.1275V24.1275V24.1274V24.1274V24.1274V24.1274V24.1273V24.1273V24.1273V24.1272V24.1272V24.1272V24.1271V24.1271V24.1271V24.127V24.127V24.127V24.127V24.1269V24.1269V24.1269V24.1268V24.1268V24.1268V24.1267V24.1267V24.1267V24.1266V24.1266V24.1266V24.1266V24.1265V24.1265V24.1265V24.1264V24.1264V24.1264V24.1263V24.1263V24.1263V24.1262V24.1262V24.1262V24.1262V24.1261V24.1261V24.1261V24.126V24.126V24.126V24.1259V24.1259V24.1259V24.1258V24.1258V24.1258V24.1258V24.1257V24.1257V24.1257V24.1256V24.1256V24.1256V24.1255V24.1255V24.1255V24.1254V24.1254V24.1254V24.1254V24.1253V24.1253V24.1253V24.1252V24.1252V24.1252V24.1251V24.1251V24.1251V24.125V24.125V24.125V24.1249V24.1249V24.1249V24.1249V24.1248V24.1248V24.1248V24.1247V24.1247V24.1247V24.1246V24.1246V24.1246V24.1245V24.1245V24.1245V24.1244V24.1244V24.1244V24.1244V24.1243V24.1243V24.1243V24.1242V24.1242V24.1242V24.1241V24.1241V24.1241V24.124V24.124V24.124V24.1239V24.1239V24.1239V24.1238V24.1238V24.1238V24.1238V24.1237V24.1237V24.1237V24.1236V24.1236V24.1236V24.1235V24.1235V24.1235V24.1234V24.1234V24.1234V24.1233V24.1233V24.1233V24.1232V24.1232V24.1232V24.1232V24.1231V24.1231V24.1231V24.123V24.123V24.123V24.1229V24.1229V24.1229V24.1228V24.1228V24.1228V24.1227V24.1227V24.1227V24.1226V24.1226V24.1226V24.1225V24.1225V24.1225V24.1224V24.1224V24.1224V24.1224V24.1223V24.1223V24.1223V24.1222V24.1222V24.1222V24.1221V24.1221V24.1221V24.122V24.122V24.122V24.1219V24.1219V24.1219V24.1218V24.1218V24.1218V24.1217V24.1217V24.1217V24.1216V24.1216V24.1216V24.1215V24.1215V24.1215V24.1215V24.1214V24.1214V24.1214V24.1213V24.1213V24.1213V24.1212V24.1212V24.1212V24.1211V24.1211V24.1211V24.121V24.121V24.121V24.1209V24.1209V24.1209V24.1208V24.1208V24.1208V24.1207V24.1207V24.1207V24.1206V24.1206V24.1206V24.1205V24.1205V24.1205V24.1204V24.1204V24.1204V24.1203V24.1203V24.1203V24.1202V24.1202V24.1202V24.1201V24.1201V24.1201V24.12V24.12V24.12V24.1199V24.1199V24.1199V24.1198V24.1198V24.1198V24.1197V24.1197V24.1197V24.1196V24.1196V24.1196V24.1195V24.1195V24.1195V24.1194V24.1194V24.1194V24.1193V24.1193V24.1193V24.1192V24.1192V24.1192V24.1191V24.1191V24.1191V24.119V24.119V24.119V24.1189V24.1189V24.1189V24.1188V24.1188V24.1188V24.1187V24.1187V24.1187V24.1186V24.1186V24.1186V24.1185V24.1185V24.1185V24.1184V24.1184V24.1184V24.1183V24.1183V24.1183V24.1182V24.1182V24.1182V24.1181V24.1181V24.1181V24.118V24.118V24.118V24.1179V24.1179V24.1179V24.1178V24.1178V24.1178V24.1177V24.1177V24.1176V24.1176V24.1176V24.1175V24.1175V24.1175V24.1174V24.1174V24.1174V24.1173V24.1173V24.1173V24.1172V24.1172V24.1172V24.1171V24.1171V24.1171V24.117V24.117V24.117V24.1169V24.1169V24.1169V24.1168V24.1168V24.1168V24.1167V24.1167V24.1166V24.1166V24.1166V24.1165V24.1165V24.1165V24.1164V24.1164V24.1164V24.1163V24.1163V24.1163V24.1162V24.1162V24.1162V24.1161V24.1161V24.116V24.116V24.116V24.1159V24.1159V24.1159V24.1158V24.1158V24.1158V24.1157V24.1157V24.1157V24.1156V24.1156V24.1156V24.1155V24.1155V24.1154V24.1154V24.1154V24.1153V24.1153V24.1153V24.1152V24.1152V24.1152V24.1151V24.1151V24.1151V24.115V24.115V24.1149V24.1149V24.1149V24.1148V24.1148V24.1148V24.1147V24.1147V24.1147V24.1146V24.1146V24.1145V24.1145V24.1145V24.1144V24.1144V24.1144V24.1143V24.1143V24.1143V15.3611V15.2663L21.8572 15.1953L18.6163 11.539L18.5417 11.4548H18.4293H11.3904H11.1404V11.7048V26.616V26.866H11.3904H21.6701ZM23.1387 23.0524V15.0184L24.6072 12.0475V23.0524V23.3024H24.3572H23.3887H23.1387V23.0524ZM19.2173 19.9888C19.2173 20.1513 19.1598 20.302 19.0652 20.4088C18.9714 20.5146 18.8511 20.5672 18.7331 20.5672H14.3275C14.2094 20.5672 14.0891 20.5146 13.9954 20.4088C13.9007 20.302 13.8432 20.1513 13.8432 19.9888C13.8432 19.8263 13.9007 19.6757 13.9954 19.5689C14.0891 19.4631 14.2094 19.4104 14.3275 19.4104H18.7331C18.8511 19.4104 18.9714 19.4631 19.0652 19.5689C19.1598 19.6757 19.2173 19.8263 19.2173 19.9888ZM19.2173 23.3024C19.2173 23.4649 19.1598 23.6156 19.0652 23.7224C18.9714 23.8282 18.8511 23.8808 18.7331 23.8808H14.3275C14.2094 23.8808 14.0891 23.8282 13.9954 23.7224C13.9007 23.6156 13.8432 23.4649 13.8432 23.3024C13.8432 23.1399 13.9007 22.9893 13.9954 22.8825C14.0891 22.7767 14.2094 22.724 14.3275 22.724H18.7331C18.8511 22.724 18.9714 22.7767 19.0652 22.8825C19.1598 22.9893 19.2173 23.1399 19.2173 23.3024Z" fill="#003292" stroke="#003292" stroke-width="0.5"/>
</svg>
