<svg width="24" height="25" viewBox="0 0 24 25" fill="none" xmlns="http://www.w3.org/2000/svg">
<path d="M23.5 12.5C23.5 18.8513 18.3513 24 12 24C5.64873 24 0.5 18.8513 0.5 12.5C0.5 6.14873 5.64873 1 12 1C18.3513 1 23.5 6.14873 23.5 12.5Z" fill="#F8F3EB" stroke="#B68A36"/>
<path d="M18.0506 12.6668C18.0319 12.6245 17.5781 11.6179 16.5694 10.6092C15.2253 9.26504 13.5276 8.55469 11.659 8.55469C9.79046 8.55469 8.09279 9.26504 6.74868 10.6092C5.73993 11.6179 5.28404 12.6261 5.26743 12.6668C5.24306 12.7216 5.23047 12.781 5.23047 12.8409C5.23047 12.9009 5.24306 12.9602 5.26743 13.015C5.28618 13.0574 5.73993 14.0634 6.74868 15.0722C8.09279 16.4158 9.79046 17.1261 11.659 17.1261C13.5276 17.1261 15.2253 16.4158 16.5694 15.0722C17.5781 14.0634 18.0319 13.0574 18.0506 13.015C18.075 12.9602 18.0876 12.9009 18.0876 12.8409C18.0876 12.781 18.075 12.7216 18.0506 12.6668ZM11.659 16.269C10.0101 16.269 8.56957 15.6695 7.37707 14.4877C6.88777 14.0011 6.47149 13.4463 6.14118 12.8404C6.4714 12.2345 6.88769 11.6796 7.37707 11.1931C8.56957 10.0113 10.0101 9.41183 11.659 9.41183C13.308 9.41183 14.7485 10.0113 15.941 11.1931C16.4312 11.6795 16.8484 12.2344 17.1796 12.8404C16.7933 13.5615 15.1106 16.269 11.659 16.269ZM11.659 10.269C11.1505 10.269 10.6533 10.4198 10.2304 10.7023C9.80756 10.9849 9.47797 11.3865 9.28334 11.8564C9.08872 12.3262 9.0378 12.8433 9.13702 13.3421C9.23624 13.8409 9.48114 14.2991 9.84076 14.6587C10.2004 15.0183 10.6586 15.2632 11.1574 15.3624C11.6562 15.4616 12.1732 15.4107 12.6431 15.2161C13.1129 15.0215 13.5145 14.6919 13.7971 14.269C14.0797 13.8461 14.2305 13.349 14.2305 12.8404C14.2298 12.1586 13.9586 11.505 13.4765 11.0229C12.9944 10.5408 12.3408 10.2697 11.659 10.269ZM11.659 14.5547C11.32 14.5547 10.9885 14.4541 10.7066 14.2658C10.4247 14.0774 10.205 13.8097 10.0752 13.4964C9.94549 13.1832 9.91154 12.8385 9.97769 12.506C10.0438 12.1734 10.2071 11.868 10.4469 11.6282C10.6866 11.3885 10.9921 11.2252 11.3246 11.1591C11.6571 11.0929 12.0018 11.1269 12.3151 11.2566C12.6283 11.3864 12.896 11.6061 13.0844 11.888C13.2728 12.1699 13.3733 12.5013 13.3733 12.8404C13.3733 13.2951 13.1927 13.7311 12.8712 14.0526C12.5497 14.3741 12.1137 14.5547 11.659 14.5547Z" fill="#B68A36"/>
</svg>
