<svg width="20" height="21" viewBox="0 0 20 21" fill="none" xmlns="http://www.w3.org/2000/svg">
<path d="M16.0675 16.1168C16.1256 16.1748 16.1717 16.2438 16.2031 16.3196C16.2345 16.3955 16.2507 16.4768 16.2507 16.5589C16.2507 16.6411 16.2345 16.7224 16.2031 16.7983C16.1717 16.8741 16.1256 16.9431 16.0675 17.0011C16.0095 17.0592 15.9405 17.1053 15.8647 17.1367C15.7888 17.1681 15.7075 17.1843 15.6253 17.1843C15.5432 17.1843 15.4619 17.1681 15.386 17.1367C15.3102 17.1053 15.2412 17.0592 15.1832 17.0011L10.0003 11.8175L4.81753 17.0011C4.70026 17.1184 4.5412 17.1843 4.37535 17.1843C4.2095 17.1843 4.05044 17.1184 3.93316 17.0011C3.81588 16.8839 3.75 16.7248 3.75 16.5589C3.75 16.3931 3.81588 16.234 3.93316 16.1168L9.11675 10.9339L3.93316 5.75113C3.81588 5.63385 3.75 5.47479 3.75 5.30894C3.75 5.14309 3.81588 4.98403 3.93316 4.86675C4.05044 4.74948 4.2095 4.68359 4.37535 4.68359C4.5412 4.68359 4.70026 4.74948 4.81753 4.86675L10.0003 10.0503L15.1832 4.86675C15.3004 4.74948 15.4595 4.68359 15.6253 4.68359C15.7912 4.68359 15.9503 4.74948 16.0675 4.86675C16.1848 4.98403 16.2507 5.14309 16.2507 5.30894C16.2507 5.47479 16.1848 5.63385 16.0675 5.75113L10.8839 10.9339L16.0675 16.1168Z" fill="#B2550B"/>
</svg>
