<svg width="48" height="48" viewBox="0 0 48 48" fill="none" xmlns="http://www.w3.org/2000/svg">
<rect width="48" height="48" rx="24" fill="#F2ECCF"/>
<path d="M37.6004 31.5113L26.6691 12.5276C26.396 12.0625 26.006 11.6769 25.5379 11.4089C25.0698 11.141 24.5397 11 24.0004 11C23.461 11 22.931 11.141 22.4629 11.4089C21.9947 11.6769 21.6048 12.0625 21.3316 12.5276L10.4004 31.5113C10.1375 31.9612 9.99902 32.4728 9.99902 32.9938C9.99902 33.5148 10.1375 34.0265 10.4004 34.4763C10.67 34.9442 11.0593 35.332 11.5283 35.5997C11.9973 35.8675 12.5291 36.0057 13.0691 36.0001H34.9316C35.4712 36.0052 36.0025 35.8669 36.471 35.5991C36.9395 35.3314 37.3284 34.9439 37.5979 34.4763C37.8611 34.0267 38 33.5152 38.0005 32.9942C38.0009 32.4732 37.8628 31.9614 37.6004 31.5113ZM23.0004 21.0001C23.0004 20.7349 23.1057 20.4805 23.2933 20.293C23.4808 20.1054 23.7351 20.0001 24.0004 20.0001C24.2656 20.0001 24.5199 20.1054 24.7075 20.293C24.895 20.4805 25.0004 20.7349 25.0004 21.0001V26.0001C25.0004 26.2653 24.895 26.5197 24.7075 26.7072C24.5199 26.8947 24.2656 27.0001 24.0004 27.0001C23.7351 27.0001 23.4808 26.8947 23.2933 26.7072C23.1057 26.5197 23.0004 26.2653 23.0004 26.0001V21.0001ZM24.0004 32.0001C23.7037 32.0001 23.4137 31.9121 23.167 31.7473C22.9203 31.5825 22.7281 31.3482 22.6145 31.0741C22.501 30.8 22.4713 30.4984 22.5292 30.2074C22.5871 29.9165 22.7299 29.6492 22.9397 29.4394C23.1495 29.2296 23.4168 29.0868 23.7077 29.0289C23.9987 28.971 24.3003 29.0007 24.5744 29.1143C24.8485 29.2278 25.0827 29.4201 25.2476 29.6667C25.4124 29.9134 25.5004 30.2034 25.5004 30.5001C25.5004 30.8979 25.3423 31.2794 25.061 31.5607C24.7797 31.842 24.3982 32.0001 24.0004 32.0001Z" fill="#92722A"/>
</svg>

