<svg width="42" height="42" viewBox="0 0 42 42" fill="none" xmlns="http://www.w3.org/2000/svg">
<path d="M21 42C16.8466 42 12.7865 40.7684 9.33303 38.4609C5.8796 36.1534 3.18798 32.8736 1.59854 29.0364C0.00909917 25.1991 -0.406771 20.9767 0.403518 16.9031C1.21381 12.8295 3.21386 9.08767 6.15077 6.15077C9.08767 3.21386 12.8295 1.21381 16.9031 0.403518C20.9767 -0.406771 25.1991 0.00909917 29.0364 1.59854C32.8736 3.18798 36.1534 5.8796 38.4609 9.33303C40.7684 12.7865 42 16.8466 42 21C42 26.5695 39.7875 31.911 35.8492 35.8492C31.911 39.7875 26.5695 42 21 42ZM21 2.80001C17.4004 2.80001 13.8816 3.86742 10.8886 5.86726C7.89565 7.8671 5.56292 10.7096 4.1854 14.0352C2.80789 17.3608 2.44747 21.0202 3.14972 24.5506C3.85197 28.0811 5.58535 31.324 8.13066 33.8693C10.676 36.4147 13.9189 38.148 17.4494 38.8503C20.9798 39.5525 24.6392 39.1921 27.9648 37.8146C31.2905 36.4371 34.1329 34.1044 36.1327 31.1114C38.1326 28.1184 39.2 24.5996 39.2 21C39.2 16.1731 37.2825 11.5438 33.8693 8.13066C30.4562 4.7175 25.8269 2.80001 21 2.80001Z" fill="#F29F0C"/>
<path d="M20.9997 32.2004C20.4459 32.2004 19.9046 32.0362 19.4441 31.7285C18.9837 31.4208 18.6248 30.9835 18.4128 30.4719C18.2009 29.9603 18.1455 29.3973 18.2535 28.8541C18.3615 28.311 18.6282 27.8121 19.0198 27.4205C19.4114 27.0289 19.9103 26.7622 20.4535 26.6542C20.9966 26.5461 21.5596 26.6016 22.0712 26.8135C22.5829 27.0254 23.0202 27.3843 23.3278 27.8448C23.6355 28.3052 23.7997 28.8466 23.7997 29.4004C23.7997 30.143 23.5047 30.8552 22.9796 31.3803C22.4545 31.9054 21.7423 32.2004 20.9997 32.2004ZM20.9997 23.8004C20.6284 23.8004 20.2723 23.6529 20.0098 23.3903C19.7472 23.1278 19.5997 22.7717 19.5997 22.4004V9.80039C19.5997 9.42909 19.7472 9.07299 20.0098 8.81044C20.2723 8.54789 20.6284 8.40039 20.9997 8.40039C21.371 8.40039 21.7271 8.54789 21.9897 8.81044C22.2522 9.07299 22.3997 9.42909 22.3997 9.80039V22.4004C22.3997 22.7717 22.2522 23.1278 21.9897 23.3903C21.7271 23.6529 21.371 23.8004 20.9997 23.8004Z" fill="#F29F0C"/>
</svg>
